<?xml version="1.0" encoding="UTF-8"?>
<svg version="1.1" xmlns="http://www.w3.org/2000/svg" width="512" height="512">
<path d="M0 0 C0.75007324 0.21881836 1.50014648 0.43763672 2.27294922 0.66308594 C38.40345878 11.44667748 76.48590272 33.02197129 95.14111328 67.08349609 C102 79.9777472 102 79.9777472 102 83 C102.83301636 82.9685791 102.83301636 82.9685791 103.68286133 82.93652344 C127.51822606 82.1700662 150.37111079 85.47785173 173 93 C173.70624512 93.22913086 174.41249023 93.45826172 175.14013672 93.69433594 C195.46355393 100.38625205 214.11524056 111.25250566 229.71875 125.89453125 C231.41333086 127.45853653 233.17863098 128.94661701 234.9765625 130.390625 C250.38977757 143.69298632 262.66268368 167.45554164 264.21923828 187.8762207 C265.26774573 215.66166798 259.43489145 238.64357266 241 260 C239.88818359 261.33611328 239.88818359 261.33611328 238.75390625 262.69921875 C233.4212256 268.906421 227.50208797 274.04912445 221 279 C219.83210937 279.89138672 219.83210937 279.89138672 218.640625 280.80078125 C207.59945467 288.85935356 188.02998361 303 174 303 C175.31864684 307.13060843 176.6517803 311.25618425 177.99780273 315.37792969 C178.45253704 316.77706265 178.90347453 318.17743613 179.3503418 319.57910156 C182.28144522 328.76213395 185.23111743 336.79140238 191.75 344.125 C194.24046258 347.30725775 195 348.9771941 195 353 C193.75 355.6875 193.75 355.6875 192 358 C191.566875 358.5775 191.13375 359.155 190.6875 359.75 C187.17928322 362.3486791 183.2644404 362.02578623 179.07421875 361.6171875 C177.60968974 361.38372641 176.14745058 361.13556403 174.6875 360.875 C173.89915771 360.73666748 173.11081543 360.59833496 172.29858398 360.45581055 C157.0768263 357.64472869 143.07175086 352.35718932 129 346 C127.27716797 345.22462891 127.27716797 345.22462891 125.51953125 344.43359375 C118.40005325 341.05345348 112.16670507 336.89627109 106 332 C105.19433594 331.360625 104.38867188 330.72125 103.55859375 330.0625 C99.47548352 326.63572728 96.66095147 323.54109696 94.0390625 318.890625 C91.10811129 314.63417691 89.09330934 313.23652968 84.0078125 312.2890625 C81.71794329 312.02605048 79.42277089 311.80645323 77.125 311.625 C74.68433478 311.34601109 72.24421964 311.06216652 69.8046875 310.7734375 C68.62874023 310.64549805 67.45279297 310.51755859 66.24121094 310.38574219 C29.5274523 306.0163735 -7.72625799 286.45579896 -31.01171875 257.69140625 C-32.85085294 255.20189062 -34.46483715 252.68531661 -36 250 C-38.25073828 250.06018017 -40.50072325 250.14901206 -42.75 250.25 C-44.00296875 250.29640625 -45.2559375 250.3428125 -46.546875 250.390625 C-50.52925069 251.09339718 -51.5382064 251.88208961 -54 255 C-54.59039062 255.74636719 -55.18078125 256.49273437 -55.7890625 257.26171875 C-56.39492187 258.06222656 -57.00078125 258.86273438 -57.625 259.6875 C-78.88697727 286.34314062 -118.06887045 300.74800987 -150.84082031 305.40356445 C-156.96318993 306.08623871 -161.11951485 306.10197565 -166.3125 302.3125 C-168.62582909 299.14238236 -168.93263528 296.90715374 -169 293 C-167.66573425 289.07568896 -166.47067144 287.34788758 -163.125 284.875 C-159.19326416 281.66218632 -157.78918509 277.79731454 -156.0625 273.125 C-155.73185547 272.26745117 -155.40121094 271.40990234 -155.06054688 270.52636719 C-151.16845866 260.19565303 -148.04808038 249.60477965 -145 239 C-145.76393066 238.8553833 -146.52786133 238.7107666 -147.31494141 238.56176758 C-178.28799721 232.08158924 -212.05277117 206.9333731 -229.54125977 180.95507812 C-244.90839062 157.2579477 -252.32429493 130.48379355 -247.28125 102.12890625 C-246.44054344 98.33187875 -245.28132164 94.67228458 -244 91 C-243.62617188 89.87980469 -243.25234375 88.75960937 -242.8671875 87.60546875 C-234.8146089 65.1275755 -219.80317903 46.48598993 -201 32 C-200.09894531 31.27167969 -199.19789063 30.54335937 -198.26953125 29.79296875 C-144.14699446 -12.83319471 -64.16942264 -18.77929429 0 0 Z M-185 45 C-185.78246094 45.57878906 -186.56492188 46.15757813 -187.37109375 46.75390625 C-206.78756435 61.63468932 -223.28876805 82.07916046 -227.70263672 106.75048828 C-230.81297391 130.27975498 -225.2114262 151.60382384 -211.6171875 170.9296875 C-208.30694938 175.16743195 -204.6936508 179.09634229 -201 183 C-199.96746094 184.12921875 -199.96746094 184.12921875 -198.9140625 185.28125 C-184.16602832 200.85166527 -163.32619631 212.03827875 -143.265625 219.0390625 C-142.27175781 219.38646484 -141.27789062 219.73386719 -140.25390625 220.09179688 C-138.2833207 220.76958605 -136.30678946 221.43037858 -134.32421875 222.07226562 C-130.56103445 223.35431774 -127.68545848 224.34127926 -124.796875 227.1171875 C-122.49169153 235.45652769 -126.00540193 244.63582551 -128.25 252.6875 C-128.56138916 253.82493652 -128.87277832 254.96237305 -129.19360352 256.13427734 C-131.51824986 264.52449001 -134.06476084 272.80297267 -137 281 C-130.08182935 279.83858867 -123.79484283 278.04234472 -117.3125 275.375 C-116.44890869 275.02308594 -115.58531738 274.67117188 -114.69555664 274.30859375 C-95.24080068 266.2223792 -76.58918576 255.80575913 -66.60546875 236.50390625 C-64.8206641 233.7203058 -64.00315596 233.193368 -61 232 C-58.52416992 231.5769043 -58.52416992 231.5769043 -55.73046875 231.32421875 C-54.16679565 231.16977295 -54.16679565 231.16977295 -52.5715332 231.01220703 C-51.45480225 230.90505371 -50.33807129 230.79790039 -49.1875 230.6875 C-13.34508444 226.88144708 22.1237296 215.57928053 50 192 C50.50724609 191.57638184 51.01449219 191.15276367 51.53710938 190.71630859 C70.45641542 174.77637362 83.67989476 153.53636428 88 129 C89.62091297 105.80641218 85.58180293 84.28856374 70.04296875 66.28515625 C69.03169922 65.15400391 69.03169922 65.15400391 68 64 C67.00419922 62.79150391 67.00419922 62.79150391 65.98828125 61.55859375 C38.00792157 28.50970311 -9.8965278 14.45288035 -51.39990234 10.78808594 C-97.36002113 7.09844289 -147.6473794 16.74527327 -185 45 Z M109 103 C109.0314209 104.22178955 109.0314209 104.22178955 109.06347656 105.46826172 C109.81017116 138.97027419 103.61951836 166.0826827 81 192 C80.46503906 192.65613281 79.93007813 193.31226563 79.37890625 193.98828125 C75.67349551 198.51711659 71.49672013 202.2688505 67 206 C66.26007813 206.62777344 65.52015625 207.25554687 64.7578125 207.90234375 C42.06799916 226.68653348 15.00124397 237.76201026 -13 246 C-0.31584948 268.10344573 29.93938582 280.58946978 53.25317383 287.17944336 C64.56038846 290.19741634 76.08136271 292.34366846 87.73046875 293.484375 C88.4992334 293.56212158 89.26799805 293.63986816 90.06005859 293.7199707 C91.51586862 293.86056541 92.97334487 293.98522515 94.43212891 294.09057617 C99.1300698 294.53068452 101.6921637 295.63928533 105 299 C106.5546875 301.33203125 106.5546875 301.33203125 107.875 303.8125 C118.14504689 321.46253034 141.9268889 331.90489826 161 337 C161.66 337 162.32 337 163 337 C161.41378518 331.15519917 159.81055642 325.31579583 158.17578125 319.484375 C157.55442813 317.23965511 156.93333676 314.99486276 156.3125 312.75 C155.99216797 311.61820313 155.67183594 310.48640625 155.34179688 309.3203125 C151.59909951 295.69019077 151.59909951 295.69019077 154.421875 290.26953125 C158.01546655 287.10608172 161.72109066 286.06540131 166.25 284.6875 C182.90439885 279.2454098 198.49608302 271.25712462 212 260 C212.80308594 259.33226562 213.60617187 258.66453125 214.43359375 257.9765625 C229.13822809 245.26772096 240.91476384 228.60188838 244 209 C245.52973042 186.24231824 240.45436626 166.93039886 225.3203125 149.5390625 C224.55460938 148.70117188 223.78890625 147.86328125 223 147 C221.91332031 145.77410156 221.91332031 145.77410156 220.8046875 144.5234375 C197.65866863 119.80819701 164.51754232 109.21947519 132 104 C130.78828125 103.80019531 129.5765625 103.60039062 128.328125 103.39453125 C121.94372124 102.61500181 115.42208855 102.92474115 109 103 Z " fill="#000000" transform="translate(248,80)"/>
</svg>
