<?xml version="1.0" encoding="UTF-8"?>
<svg version="1.1" xmlns="http://www.w3.org/2000/svg" width="512" height="512">
<path d="M0 0 C0.80382111 0.00182281 1.60764221 0.00364563 2.43582153 0.00552368 C15.76747826 0.05615795 28.75368154 0.79719209 41.875 3.3125 C42.78169434 3.48410645 43.68838867 3.65571289 44.62255859 3.83251953 C100.67303441 14.78806232 153.1339856 46.86972802 186.875 93.3125 C187.31763184 93.91610352 187.76026367 94.51970703 188.21630859 95.14160156 C210.32349258 125.52407449 224.95974224 160.17054253 230.875 197.3125 C230.99214355 198.03695312 231.10928711 198.76140625 231.22998047 199.5078125 C240.11340074 257.58663743 224.5463059 319.77734854 190.35839844 367.36083984 C185.50830588 373.95251379 180.31230361 380.20069544 174.875 386.3125 C174.43333496 386.81587891 173.99166992 387.31925781 173.53662109 387.83789062 C154.67024529 409.30106222 132.09318727 425.99606697 106.875 439.3125 C105.9459082 439.81064209 105.9459082 439.81064209 104.99804688 440.31884766 C52.73135076 467.94984815 -12.35160887 471.5492384 -68.35302734 454.31933594 C-112.50090928 439.98482584 -153.74796188 413.51010947 -182.125 376.3125 C-182.54313965 375.77077148 -182.9612793 375.22904297 -183.39208984 374.67089844 C-199.56017371 353.63646317 -224.125 319.71334526 -224.125 292.3125 C-206.965 292.3125 -189.805 292.3125 -172.125 292.3125 C-167.125 302.3125 -167.125 302.3125 -165.1328125 306.3671875 C-156.98310956 322.95172659 -147.86020288 338.51901907 -135.19921875 352.0859375 C-133.31175832 354.11202496 -131.52879289 356.19146905 -129.75 358.3125 C-101.51169686 390.48353485 -56.36353989 410.27724994 -14.125 413.3125 C39.29316212 415.40475579 87.01978291 399.29058137 126.46826172 362.84033203 C134.48061019 355.32985318 141.38369538 347.15832714 147.875 338.3125 C148.49689209 337.48105469 148.49689209 337.48105469 149.13134766 336.6328125 C166.24798277 313.51212582 176.33365126 285.52889707 180.875 257.3125 C181.16310547 255.54326172 181.16310547 255.54326172 181.45703125 253.73828125 C187.08310608 205.51733695 172.52952956 157.42371559 142.875 119.3125 C138.61779354 114.19788294 134.00433244 109.43860618 129.296875 104.73828125 C127.8349655 103.27401383 126.39029821 101.79182035 124.98046875 100.27734375 C94.40681128 67.96017832 47.50364621 51.70705478 3.875 50.3125 C-46.86068088 49.85074181 -92.66233061 69.63245 -129.125 104.3125 C-129.75792969 104.89257812 -130.39085937 105.47265625 -131.04296875 106.0703125 C-139.94559538 114.48657235 -147.43935951 125.10036782 -154.125 135.3125 C-154.52058105 135.91304199 -154.91616211 136.51358398 -155.32373047 137.13232422 C-156.63231111 139.13828919 -157.91295342 141.15976798 -159.1875 143.1875 C-159.60660645 143.83066162 -160.02571289 144.47382324 -160.45751953 145.13647461 C-161.76482624 147.18140609 -161.76482624 147.18140609 -163.125 150.3125 C-161.87756509 154.66939911 -158.06980249 157.62466544 -154.93115234 160.7175293 C-153.97974113 161.66696915 -153.97974113 161.66696915 -153.0091095 162.6355896 C-150.9142788 164.72393558 -148.81256956 166.80521952 -146.7109375 168.88671875 C-145.2559731 170.33541342 -143.8015222 171.784624 -142.3475647 173.23432922 C-138.52131184 177.04728154 -134.68952993 180.8546248 -130.85614014 184.66040039 C-124.71152901 190.76187525 -118.57366181 196.87011665 -112.4389534 202.9815464 C-110.28964659 205.12058708 -108.13698331 207.2562078 -105.98397827 209.39152527 C-104.67589201 210.69278799 -103.36791282 211.99415836 -102.06005859 213.2956543 C-101.45540268 213.89357285 -100.85074677 214.49149139 -100.22776794 215.10752869 C-98.84110971 216.49032372 -97.4799336 217.89860534 -96.125 219.3125 C-96.125 219.6425 -96.125 219.9725 -96.125 220.3125 C-148.595 220.3125 -201.065 220.3125 -255.125 220.3125 C-255.125 167.8425 -255.125 115.3725 -255.125 61.3125 C-250.85771548 64.97017244 -246.85973114 68.45380406 -242.92407227 72.39990234 C-242.45487869 72.86894989 -241.98568512 73.33799744 -241.50227356 73.82125854 C-239.97959669 75.34462212 -238.46047505 76.87147678 -236.94140625 78.3984375 C-235.87545891 79.46625345 -234.80928795 80.53384622 -233.74290466 81.60122681 C-230.95749861 84.39042318 -228.17511071 87.182611 -225.39337158 89.97546387 C-222.54598936 92.83313575 -219.69572014 95.68792502 -216.84570312 98.54296875 C-211.26932919 104.13001842 -205.69614506 109.72023634 -200.125 115.3125 C-197.74240479 112.35571875 -195.45735904 109.42456063 -193.390625 106.23828125 C-192.90311768 105.49320312 -192.41561035 104.748125 -191.91333008 103.98046875 C-191.40568115 103.20316406 -190.89803223 102.42585938 -190.375 101.625 C-184.02256486 92.01112818 -177.12266232 83.26630971 -169.34765625 74.7578125 C-167.21451605 72.41098338 -165.13867927 70.02215414 -163.0625 67.625 C-159.36157784 63.46600692 -155.3904481 59.87832434 -151.125 56.3125 C-149.92037109 55.24128906 -149.92037109 55.24128906 -148.69140625 54.1484375 C-128.13190683 36.24271744 -103.74036647 22.46561471 -78.125 13.3125 C-77.35365723 13.03567383 -76.58231445 12.75884766 -75.78759766 12.47363281 C-66.34387784 9.14857708 -56.79048843 6.64526883 -47 4.5625 C-46.07155273 4.36374268 -45.14310547 4.16498535 -44.18652344 3.96020508 C-29.49493137 0.99211673 -14.95487043 -0.07105885 0 0 Z " fill="#000000" transform="translate(267.125,11.6875)"/>
<path d="M0 0 C12.21 0 24.42 0 37 0 C36.87842529 3.00085693 36.75685059 6.00171387 36.6315918 9.09350586 C36.24921096 19.06617538 36.02999843 29.03779273 35.88859844 39.01663876 C35.79800585 45.06274816 35.65458018 51.09744114 35.38500977 57.13842773 C32.87446655 82.66859041 32.87446655 82.66859041 40.73892212 105.77990723 C46.53036089 111.34075084 53.77630527 114.41840639 61.29755211 116.93152714 C68.48739647 119.3390606 74.46352684 123.27620572 80.8125 127.375 C83.09769157 128.78660506 85.39423483 130.17816977 87.69140625 131.5703125 C88.34102325 131.9659137 88.99064026 132.36151489 89.65994263 132.769104 C98.51064217 138.14196706 107.4296974 143.40136358 116.34301758 148.66943359 C122.60831449 152.37479794 128.8531574 156.09971917 135 160 C133.46313307 165.82689424 130.43390312 170.38174152 127.1875 175.375 C126.13918681 177.00772512 125.09100839 178.64053678 124.04296875 180.2734375 C123.53556152 181.05944336 123.0281543 181.84544922 122.50537109 182.65527344 C120.30447056 186.08333843 118.14839791 189.53885854 116 193 C112.28132515 192.32266994 109.48987552 190.69104972 106.25 188.78125 C105.68853271 188.45181396 105.12706543 188.12237793 104.54858398 187.78295898 C102.69597764 186.69377124 100.84794085 185.59708185 99 184.5 C97.69414845 183.72958369 96.38815661 182.95940514 95.08203125 182.18945312 C85.76380908 176.68555816 76.50708249 171.08240165 67.26986694 165.44390869 C58.33821796 159.99304159 49.34924698 154.64969879 40.3125 149.375 C30.76156117 143.79948399 21.23563951 138.18603891 11.75 132.5 C10.67790283 131.85853027 9.60580566 131.21706055 8.5012207 130.55615234 C7.52628662 129.97043457 6.55135254 129.3847168 5.546875 128.78125 C4.68932617 128.26626953 3.83177734 127.75128906 2.94824219 127.22070312 C1 126 1 126 0 125 C-0.09603022 123.3804366 -0.12187855 121.75666917 -0.12025452 120.13426208 C-0.12162918 119.08111816 -0.12300385 118.02797424 -0.12442017 116.94291687 C-0.12082489 115.77766983 -0.11722961 114.61242279 -0.11352539 113.41186523 C-0.11367142 112.19252289 -0.11381744 110.97318054 -0.1139679 109.71688843 C-0.11338893 106.36372489 -0.10835968 103.01062226 -0.10139394 99.65746951 C-0.09515983 96.15674438 -0.09455656 92.65601852 -0.09336853 89.1552887 C-0.09025538 82.52190344 -0.08204222 75.88853459 -0.07201904 69.25515658 C-0.06085739 61.70509793 -0.05534732 54.15503851 -0.05032361 46.60497367 C-0.03985959 31.06997132 -0.02151432 15.53499157 0 0 Z " fill="#000000" transform="translate(231,134)"/>
</svg>
