<?xml version="1.0" encoding="UTF-8"?>
<svg version="1.1" xmlns="http://www.w3.org/2000/svg" width="640" height="640">
<path d="M0 0 C1.71786209 0.00081573 1.71786209 0.00081573 3.47042847 0.00164795 C21.90855326 0.04181711 39.6704073 0.91000958 57.8125 4.375 C58.97378418 4.59462402 60.13506836 4.81424805 61.33154297 5.04052734 C123.334262 17.12631049 179.38159932 46.58174068 224.8125 90.375 C225.39660645 90.93719238 225.98071289 91.49938477 226.58251953 92.07861328 C234.20858453 99.46018782 241.25150943 107.01741236 247.8125 115.375 C248.71732185 116.46971031 249.62503673 117.56203384 250.53515625 118.65234375 C287.71566013 163.52129351 310.64790581 218.90227251 318.8125 276.375 C319.09178345 278.33300537 319.09178345 278.33300537 319.37670898 280.33056641 C321.09059086 293.3249958 321.16984103 306.28501668 321.125 319.375 C321.12284485 320.50528625 321.1206897 321.63557251 321.11846924 322.80010986 C321.06831675 339.17910102 320.74972852 355.21892366 317.8125 371.375 C317.61382324 372.5084082 317.41514648 373.64181641 317.21044922 374.80957031 C314.05450832 392.41191932 309.58644195 409.45503382 303.8125 426.375 C303.50618652 427.27589355 303.19987305 428.17678711 302.88427734 429.10498047 C289.63254436 467.37105978 268.28696998 503.35711068 240.8359375 533.16796875 C239.06801137 535.09630517 237.37403954 537.06347978 235.6875 539.0625 C227.40726615 548.53662803 218.34816151 557.5083818 208.45703125 565.28515625 C205.66935216 567.48812274 203.00028307 569.80153607 200.3125 572.125 C175.24244169 592.99517741 127.65940157 627.6314601 93.8125 625.375 C88.28849856 624.06369498 84.96003894 622.28516074 81.8125 617.375 C80.67113844 615.09227689 80.68083271 613.8172462 80.66773987 611.28045654 C80.66084137 610.42286743 80.65394287 609.56527832 80.64683533 608.68170166 C80.64291527 607.26676422 80.64291527 607.26676422 80.63891602 605.82324219 C80.632229 604.83106689 80.62554199 603.8388916 80.61865234 602.81665039 C80.6045742 600.65480542 80.59268902 598.49294533 80.58270454 596.33107758 C80.56629839 592.8993136 80.54305443 589.46765933 80.51780701 586.03594971 C80.44706404 576.27564991 80.38723802 566.51530236 80.33569336 556.75488281 C80.30369675 550.78729277 80.26235675 544.81982399 80.21549797 538.85233307 C80.19958458 536.58639994 80.18721447 534.32043884 80.17859077 532.05446625 C80.10440019 509.7927393 80.10440019 509.7927393 75.125 488.1875 C74.86589844 487.42848389 74.60679687 486.66946777 74.33984375 485.88745117 C70.94692932 476.40041812 65.56127448 468.78219151 58.8125 461.375 C63.88752185 460.3192748 68.96166012 459.3266598 74.08203125 458.515625 C112.59541327 452.38417569 151.86856326 438.90965911 176.22607422 406.55908203 C191.64496273 385.20457611 199.42258955 360.27438505 202.8125 334.375 C202.95606934 333.30765625 202.95606934 333.30765625 203.10253906 332.21875 C205.38319364 312.86179648 205.93858978 290.27833382 200.8125 271.375 C200.62445801 270.6624707 200.43641602 269.94994141 200.24267578 269.21582031 C195.25273311 251.01066751 186.26885922 232.83135922 172.8125 219.375 C173.15439335 213.33488423 174.64330652 207.57854165 176.09375 201.71875 C180.55692398 180.95528843 177.61601723 159.37711956 170.80078125 139.5 C169.8125 136.375 169.8125 136.375 169.8125 133.375 C138.8813012 131.96666548 110.60104599 147.69439295 85.57983398 164.31860352 C81.74496296 166.61083821 79.5431323 166.2796368 75.3515625 165.265625 C74.25013916 165.00676514 73.14871582 164.74790527 72.01391602 164.48120117 C70.83369873 164.19865479 69.65348145 163.9161084 68.4375 163.625 C59.78429975 161.62615629 51.17423449 159.78557228 42.375 158.5625 C41.18221436 158.39572754 41.18221436 158.39572754 39.96533203 158.22558594 C37.5834404 157.91198265 35.20093264 157.63404394 32.8125 157.375 C31.9447998 157.2807373 31.07709961 157.18647461 30.18310547 157.08935547 C21.0680653 156.21432413 11.96173998 156.13170982 2.8125 156.125 C1.97990662 156.12432526 1.14731323 156.12365051 0.28948975 156.12295532 C-21.53910254 156.15084646 -42.62241428 158.38359949 -63.9453125 163.19140625 C-64.81897461 163.38331543 -65.69263672 163.57522461 -66.59277344 163.77294922 C-68.34607785 164.17976599 -70.08963317 164.63072147 -71.82128906 165.12158203 C-76.10507978 166.23757526 -79.04134907 166.93245152 -83.03125 164.734375 C-84.26888887 163.89167747 -85.48721517 163.0201008 -86.6875 162.125 C-88.07411887 161.18091201 -89.46355012 160.24094417 -90.85546875 159.3046875 C-91.56622559 158.81709961 -92.27698242 158.32951172 -93.00927734 157.82714844 C-112.38986396 144.90675736 -136.90122435 133.04594072 -160.625 133.3125 C-162.20087891 133.32603516 -162.20087891 133.32603516 -163.80859375 133.33984375 C-164.98615234 133.35724609 -164.98615234 133.35724609 -166.1875 133.375 C-167.97620114 139.77096164 -169.67778872 146.18813687 -171.3125 152.625 C-171.56821777 153.6159668 -171.56821777 153.6159668 -171.82910156 154.62695312 C-176.60651652 173.60364317 -175.28126202 193.65695883 -170.1875 212.375 C-169.34765625 215.57421875 -169.34765625 215.57421875 -169.1875 218.375 C-170.5234375 220.65625 -170.5234375 220.65625 -172.5625 222.875 C-197.42072529 251.97731253 -203.37309085 288.3267432 -200.5 325.4375 C-197.03539406 364.45368731 -183.99744635 400.06549973 -153.875 426.234375 C-129.31730029 445.79486838 -99.55661318 453.71887044 -69.17333984 458.85400391 C-64.82787259 459.61223997 -60.50674551 460.48063218 -56.1875 461.375 C-57.0125 462.24125 -57.8375 463.1075 -58.6875 464 C-68.06996974 475.06820898 -73.07875001 488.11593128 -75.96875 502.17578125 C-77.1875 505.375 -77.1875 505.375 -79.6640625 507.046875 C-100.58511158 514.2109067 -121.98476467 516.71165026 -142.625 507.0625 C-154.4587179 500.56983934 -162.73151251 491.40209171 -170.1875 480.375 C-180.35271831 465.56221841 -191.74420465 451.62808751 -210.1875 447.375 C-211.4559375 447.0346875 -211.4559375 447.0346875 -212.75 446.6875 C-219.32671571 445.84433132 -224.91427518 446.31997808 -231.1875 448.375 C-231.8475 449.365 -232.5075 450.355 -233.1875 451.375 C-229.83205957 458.29559588 -223.50409155 462.54733036 -217.25 466.6875 C-201.29696057 477.75248924 -192.24132479 496.3189267 -184.51049805 513.55688477 C-177.02173826 529.95542881 -165.78171003 539.80021823 -149.1875 546.375 C-129.96370895 552.811847 -110.33128034 552.31112004 -90.4609375 549.859375 C-88.67949341 549.64643799 -88.67949341 549.64643799 -86.86206055 549.42919922 C-83.96990076 549.08278048 -81.07845531 548.73130665 -78.1875 548.375 C-78.0946755 556.87665072 -78.02367247 565.37808845 -77.98025131 573.88012123 C-77.95940753 577.82830373 -77.93114951 581.77613863 -77.88574219 585.72412109 C-77.84216848 589.53669001 -77.81833876 593.34892532 -77.80799103 597.16172409 C-77.80062019 598.61376571 -77.78622644 600.06578979 -77.76457977 601.51768875 C-77.73539024 603.55727333 -77.73155014 605.59549289 -77.73339844 607.63525391 C-77.72451599 608.79441315 -77.71563354 609.95357239 -77.70648193 611.14785767 C-78.29281492 615.08155608 -79.79730289 617.24037068 -82.1875 620.375 C-82.80625 621.24125 -82.80625 621.24125 -83.4375 622.125 C-88.35977935 625.64091382 -93.93661885 625.58451922 -99.65771484 624.85693359 C-104.35631217 623.96183312 -108.7350637 622.27855084 -113.1875 620.5625 C-114.22567871 620.16579102 -115.26385742 619.76908203 -116.33349609 619.36035156 C-151.74249928 605.52846051 -184.85583258 585.53642512 -212.75 559.62890625 C-214.81594186 557.71857219 -216.91700579 555.8817003 -219.0625 554.0625 C-227.77781937 546.45672848 -235.84597001 538.16736517 -243.0234375 529.09765625 C-245.28340563 526.25433895 -247.6363946 523.50753964 -250 520.75 C-272.41389772 493.79789424 -289.08128364 462.13299722 -301.1875 429.375 C-301.63947754 428.15586914 -301.63947754 428.15586914 -302.10058594 426.91210938 C-308.17859991 410.26021243 -312.35897158 392.94055848 -315.4375 375.5 C-315.58848145 374.64704346 -315.73946289 373.79408691 -315.89501953 372.9152832 C-316.36935241 370.07329665 -316.78802112 367.22851518 -317.1875 364.375 C-317.36555176 363.1161499 -317.54360352 361.8572998 -317.72705078 360.56030273 C-319.44712545 347.45638316 -319.58612083 334.38832434 -319.5625 321.1875 C-319.56195618 320.04225861 -319.56141235 318.89701721 -319.56085205 317.71707153 C-319.52068944 299.28195214 -318.66177227 281.51320521 -315.1875 263.375 C-314.85008789 261.60914551 -314.85008789 261.60914551 -314.50585938 259.80761719 C-312.95475687 251.93886993 -311.17336436 244.14499723 -309.1875 236.375 C-308.96368652 235.49908203 -308.73987305 234.62316406 -308.50927734 233.72070312 C-297.57784286 192.15022936 -276.79519951 153.89548419 -250.1875 120.375 C-249.46046875 119.45332031 -248.7334375 118.53164062 -247.984375 117.58203125 C-235.02942253 101.43494121 -220.47157205 86.16645004 -204.1875 73.375 C-203.1277798 72.49379777 -202.07061352 71.60951785 -201.015625 70.72265625 C-183.30149001 55.96339832 -163.6961328 43.83322632 -143.1875 33.375 C-142.40665039 32.9723291 -141.62580078 32.5696582 -140.82128906 32.15478516 C-110.26281028 16.53557125 -77.05668343 7.27230396 -43.1875 2.375 C-42.22896622 2.2356604 -42.22896622 2.2356604 -41.25106812 2.09350586 C-27.5246498 0.16292779 -13.84389911 -0.02477152 0 0 Z " fill="#1A1E22" transform="translate(319.1875,-0.375)"/>
</svg>
