<?xml version="1.0" encoding="UTF-8"?>
<svg version="1.1" xmlns="http://www.w3.org/2000/svg" width="512" height="512">
<path d="M0 0 C25.90137776 -0.16043524 25.90137776 -0.16043524 37.05859375 -0.1953125 C44.63113814 -0.21909751 52.20348659 -0.2470399 59.77587891 -0.30175781 C65.89026772 -0.34565684 72.00444599 -0.36922891 78.11898041 -0.37950897 C80.43583229 -0.38682209 82.75267445 -0.40109916 85.06943512 -0.42292023 C122.72473722 -0.76303927 155.4552341 10.61386061 182.625 37.1875 C195.5724648 50.32483283 204.59019119 66.22245755 214.10449219 81.89550781 C216.71268007 86.1672385 219.37859154 90.40056652 222.0625 94.625 C226.50555945 101.62950362 230.91879132 108.65192229 235.3125 115.6875 C235.94293213 116.69699707 236.57336426 117.70649414 237.22290039 118.74658203 C238.5076015 120.80412772 239.79218745 122.86174532 241.07666016 124.91943359 C244.21589223 129.94746487 247.35807151 134.97365341 250.5 140 C251.75001464 141.99999085 253.00001462 143.99999086 254.25 146 C255.178125 147.485 255.178125 147.485 256.125 149 C276.75 182 276.75 182 278.62646484 185.00292969 C279.87087925 186.99360356 281.11599137 188.98384145 282.36181641 190.97363281 C285.57827049 196.11288466 288.7805625 201.260206 291.9609375 206.421875 C305.35937957 228.12874613 317.41636592 247.14304402 343.8203125 253.45703125 C352.86142621 255.00090693 361.97331799 255.26333405 371.125 255.5625 C373.4217198 255.64032092 375.71843153 255.71838006 378.01513672 255.79663086 C379.14474823 255.83501572 380.27435974 255.87340057 381.4382019 255.91294861 C382.70629196 255.95603905 382.70629196 255.95603905 384 256 C383.99111755 255.33680756 383.98223511 254.67361511 383.9730835 253.99032593 C383.88450044 247.07973866 383.82421985 240.16931304 383.78027344 233.25830078 C383.76017437 230.68010912 383.73289059 228.10196296 383.69824219 225.52392578 C383.64965153 221.81531539 383.62701342 218.10730844 383.609375 214.3984375 C383.58872986 213.24822113 383.56808472 212.09800476 383.54681396 210.91293335 C383.54505708 204.62874649 383.68602283 200.72515616 388 196 C393.03878693 192.09236932 396.94724359 191.54197685 403.25390625 191.46875 C409.23588589 192.62600353 413.69318006 197.29755071 418.1875 201.1875 C419.33660096 202.17131932 420.48635037 203.15438171 421.63671875 204.13671875 C422.20438965 204.62188965 422.77206055 205.10706055 423.35693359 205.60693359 C425.71189152 207.603574 428.1039417 209.55298338 430.5 211.5 C435.1045358 215.24787798 439.64019191 219.06983444 444.1640625 222.9140625 C447.5805954 225.81244823 451.02504838 228.671551 454.5 231.5 C459.1045358 235.24787798 463.64019191 239.06983444 468.1640625 242.9140625 C471.5805954 245.81244823 475.02504838 248.671551 478.5 251.5 C483.09870701 255.24313361 487.63394884 259.05438812 492.14428711 262.90307617 C495.72525365 265.95083257 499.3762529 268.89197134 503.0625 271.8125 C511.59872274 278.88039288 511.59872274 278.88039288 512.36328125 284.82421875 C512.64238957 291.30750623 512.14582894 294.80595499 508 300 C505.74943116 302.23363135 503.36855186 304.27855467 500.9375 306.3125 C500.26992676 306.88081543 499.60235352 307.44913086 498.91455078 308.03466797 C494.23897212 312.00145178 489.50657752 315.89823246 484.7421875 319.7578125 C481.62999852 322.30253683 478.56273503 324.89618225 475.5 327.5 C470.65051278 331.62113948 465.74838877 335.66991612 460.8125 339.6875 C457.68200334 342.26146392 454.58827539 344.87569086 451.5 347.5 C446.64822665 351.62286843 441.7450194 355.67470161 436.8046875 359.69140625 C434.26658579 361.78056796 431.76111588 363.90125206 429.26293945 366.03759766 C424.2059453 370.35967315 419.0847857 374.56718347 413.8125 378.625 C412.98322998 379.26393188 412.98322998 379.26393188 412.13720703 379.91577148 C406.17813015 384.45945067 401.46730141 384.99875156 394 384 C389.28512467 381.73833324 386.00129493 378.86018325 384 374 C383.75949097 371.46893311 383.75949097 371.46893311 383.77294922 368.58886719 C383.77310028 367.50804871 383.77325134 366.42723022 383.77340698 365.31365967 C383.78372955 364.15312073 383.79405212 362.99258179 383.8046875 361.796875 C383.80893234 360.00748505 383.80893234 360.00748505 383.81326294 358.1819458 C383.82445947 354.37119524 383.84956347 350.56067955 383.875 346.75 C383.88503046 344.16667006 383.8941562 341.58333644 383.90234375 339 C383.92439711 332.66658651 383.95786965 326.33331003 384 320 C382.80213867 320.02094727 381.60427734 320.04189453 380.37011719 320.06347656 C375.82255552 320.13720464 371.27504349 320.18226986 366.72705078 320.21972656 C364.77806651 320.23954566 362.82913918 320.26660903 360.88037109 320.30175781 C325.01807068 320.93124579 293.13278421 309.08712566 266.96704102 284.36376953 C253.1935628 270.92969973 243.80993601 254.43667797 233.89550781 238.10449219 C231.28731993 233.8327615 228.62140846 229.59943348 225.9375 225.375 C221.49444055 218.37049638 217.08120868 211.34807771 212.6875 204.3125 C211.74185181 202.79825439 211.74185181 202.79825439 210.77709961 201.25341797 C209.4923985 199.19587228 208.20781255 197.13825468 206.92333984 195.08056641 C203.78410777 190.05253513 200.64192849 185.02634659 197.5 180 C196.24998536 178.00000915 194.99998538 176.00000914 193.75 174 C193.13125 173.01 192.5125 172.02 191.875 171 C171.25 138 171.25 138 169.37353516 134.99707031 C168.12912075 133.00639644 166.88400863 131.01615855 165.63818359 129.02636719 C162.42172951 123.88711534 159.2194375 118.739794 156.0390625 113.578125 C142.64062043 91.87125387 130.58363408 72.85695598 104.1796875 66.54296875 C96.65632576 65.25826693 89.13259433 64.84850152 81.51123047 64.79467773 C80.62219528 64.78477814 79.7331601 64.77487854 78.81718445 64.76467896 C75.91721132 64.73342469 73.01722189 64.70845132 70.1171875 64.68359375 C68.09123338 64.66299295 66.06528326 64.64199572 64.03933716 64.62062073 C58.73599506 64.56572259 53.43261628 64.51617257 48.12921143 64.46777344 C41.75049881 64.40843324 35.37185247 64.34238473 28.99319458 64.27747345 C19.32883726 64.1798705 9.66443521 64.09073681 0 64 C0 42.88 0 21.76 0 0 Z " fill="#000000" transform="translate(0,96)"/>
<path d="M0 0 C4.45675475 2.57619289 8.30643669 5.82834007 12.1875 9.1875 C13.33660096 10.17131932 14.48635037 11.15438171 15.63671875 12.13671875 C16.20438965 12.62188965 16.77206055 13.10706055 17.35693359 13.60693359 C19.71189152 15.603574 22.1039417 17.55298338 24.5 19.5 C29.1045358 23.24787798 33.64019191 27.06983444 38.1640625 30.9140625 C41.5805954 33.81244823 45.02504838 36.671551 48.5 39.5 C53.1045358 43.24787798 57.64019191 47.06983444 62.1640625 50.9140625 C65.5805954 53.81244823 69.02504838 56.671551 72.5 59.5 C77.09870701 63.24313361 81.63394884 67.05438812 86.14428711 70.90307617 C89.72525365 73.95083257 93.3762529 76.89197134 97.0625 79.8125 C105.59872274 86.88039288 105.59872274 86.88039288 106.36328125 92.82421875 C106.64238957 99.30750623 106.14582894 102.80595499 102 108 C99.74943116 110.23363135 97.36855186 112.27855467 94.9375 114.3125 C94.26992676 114.88081543 93.60235352 115.44913086 92.91455078 116.03466797 C88.23897212 120.00145178 83.50657752 123.89823246 78.7421875 127.7578125 C75.62999852 130.30253683 72.56273503 132.89618225 69.5 135.5 C64.65051278 139.62113948 59.74838877 143.66991612 54.8125 147.6875 C51.68200334 150.26146392 48.58827539 152.87569086 45.5 155.5 C40.64822665 159.62286843 35.7450194 163.67470161 30.8046875 167.69140625 C28.26658579 169.78056796 25.76111588 171.90125206 23.26293945 174.03759766 C18.2059453 178.35967315 13.0847857 182.56718347 7.8125 186.625 C7.25965332 187.05095459 6.70680664 187.47690918 6.13720703 187.91577148 C0.17813015 192.45945067 -4.53269859 192.99875156 -12 192 C-16.71487533 189.73833324 -19.99870507 186.86018325 -22 182 C-22.24050903 179.46893311 -22.24050903 179.46893311 -22.22705078 176.58886719 C-22.22682419 174.96763947 -22.22682419 174.96763947 -22.22659302 173.31365967 C-22.21627045 172.15312073 -22.20594788 170.99258179 -22.1953125 169.796875 C-22.1924826 168.60394836 -22.18965271 167.41102173 -22.18673706 166.1819458 C-22.17554053 162.37119524 -22.15043653 158.56067955 -22.125 154.75 C-22.11496954 152.16667006 -22.1058438 149.58333644 -22.09765625 147 C-22.07560289 140.66658651 -22.04213035 134.33331003 -22 128 C-62.23414978 128.72017476 -62.23414978 128.72017476 -95.38671875 149.38671875 C-102.26365702 157.25136808 -107.2381543 166.47691659 -112.49365234 175.45654297 C-114.84642025 179.42917443 -117.29185874 183.34196901 -119.75 187.25 C-120.18046631 187.93537842 -120.61093262 188.62075684 -121.05444336 189.3269043 C-122.03469441 190.88561096 -123.01707542 192.44297788 -124 194 C-127.3325114 192.62035971 -128.74276651 191.32021258 -130.5234375 188.203125 C-131.20817139 187.0289502 -131.20817139 187.0289502 -131.90673828 185.83105469 C-132.39126465 184.97930664 -132.87579102 184.12755859 -133.375 183.25 C-134.44000847 181.42550467 -135.50782374 179.60264547 -136.578125 177.78125 C-137.13564453 176.83121094 -137.69316406 175.88117188 -138.26757812 174.90234375 C-141.12112818 170.12176271 -144.11968928 165.4361498 -147.125 160.75 C-148.29698387 158.91934053 -149.46886056 157.08861243 -150.640625 155.2578125 C-151.48463867 153.93958496 -151.48463867 153.93958496 -152.34570312 152.59472656 C-156.27826387 146.42659558 -160.13744837 140.2121222 -164 134 C-157.75936546 121.56767707 -149.51015309 111.0938087 -140 101 C-139.38898438 100.32453125 -138.77796875 99.6490625 -138.1484375 98.953125 C-126.49126054 86.55187291 -110.66887475 77.30035721 -94.875 71.25 C-94.19091064 70.98034424 -93.50682129 70.71068848 -92.80200195 70.43286133 C-76.29226156 64.44625863 -59.63552184 63.43642755 -42.25 63.75 C-40.26954975 63.77013907 -38.28907923 63.78837647 -36.30859375 63.8046875 C-31.53854497 63.84799692 -26.76950914 63.91659454 -22 64 C-22.00888245 63.33680756 -22.01776489 62.67361511 -22.0269165 61.99032593 C-22.11549956 55.07973866 -22.17578015 48.16931304 -22.21972656 41.25830078 C-22.23982563 38.68010912 -22.26710941 36.10196296 -22.30175781 33.52392578 C-22.35034847 29.81531539 -22.37298658 26.10730844 -22.390625 22.3984375 C-22.41127014 21.24822113 -22.43191528 20.09800476 -22.45318604 18.91293335 C-22.45494292 12.62874649 -22.31397717 8.72515616 -18 4 C-12.48800365 -0.27460942 -6.90311401 -1.33545307 0 0 Z " fill="#000000" transform="translate(406,32)"/>
<path d="M0 0 C3.3325114 1.37964029 4.74276651 2.67978742 6.5234375 5.796875 C6.97992676 6.5796582 7.43641602 7.36244141 7.90673828 8.16894531 C8.63352783 9.44656738 8.63352783 9.44656738 9.375 10.75 C10.44000847 12.57449533 11.50782374 14.39735453 12.578125 16.21875 C13.4144043 17.64380859 13.4144043 17.64380859 14.26757812 19.09765625 C17.12112818 23.87823729 20.11968928 28.5638502 23.125 33.25 C24.29698387 35.08065947 25.46886056 36.91138757 26.640625 38.7421875 C27.20330078 39.62100586 27.76597656 40.49982422 28.34570312 41.40527344 C32.27826387 47.57340442 36.13744837 53.7878778 40 60 C33.75936546 72.43232293 25.51015309 82.9061913 16 93 C15.08347656 94.01320313 15.08347656 94.01320313 14.1484375 95.046875 C1.32431617 108.68955726 -16.59913388 118.45637506 -34.1875 124.4375 C-34.8381543 124.66018555 -35.48880859 124.88287109 -36.15917969 125.11230469 C-52.04039208 130.12295459 -67.46971685 130.40843187 -83.96875 130.29296875 C-86.34484588 130.28736136 -88.72094528 130.28309668 -91.0970459 130.28010559 C-97.2980537 130.26874678 -103.49884484 130.23935834 -109.69976807 130.20599365 C-117.16817244 130.16964901 -124.63664997 130.15608889 -132.1051178 130.13863373 C-143.40356175 130.1097145 -154.70153193 130.05216461 -166 130 C-166 108.88 -166 87.76 -166 66 C-159.60496094 65.95101562 -153.20992187 65.90203125 -146.62109375 65.8515625 C-142.54230297 65.81612995 -138.46353181 65.78014361 -134.38476562 65.7421875 C-127.92686951 65.68214368 -121.46900049 65.62402514 -115.01098633 65.578125 C-109.79780237 65.54094321 -104.58477202 65.49449941 -99.37172127 65.44193649 C-97.39410185 65.42356562 -95.41644973 65.40839565 -93.43877983 65.39665604 C-69.75585604 65.25118956 -48.97121729 63.18128986 -30.484375 46.734375 C-23.75424943 39.32700408 -18.69245907 30.47678146 -13.4375 22 C-12.80392578 20.98421875 -12.17035156 19.9684375 -11.51757812 18.921875 C-7.61496199 12.65196649 -3.77758543 6.34599253 0 0 Z " fill="#000000" transform="translate(166,286)"/>
</svg>
