<?xml version="1.0" encoding="UTF-8"?>
<svg version="1.1" xmlns="http://www.w3.org/2000/svg" width="512" height="512">
<path d="M0 0 C1.01790619 0.00215515 2.03581238 0.0043103 3.08456421 0.00653076 C17.69363523 0.05620146 32.02575853 0.30709809 46.375 3.3125 C47.34985352 3.51117676 48.32470703 3.70985352 49.32910156 3.91455078 C97.7109774 14.03517194 141.69928269 35.9516877 177.375 70.3125 C178.3640332 71.26068604 178.3640332 71.26068604 179.37304688 72.22802734 C188.86130305 81.37247479 197.6012044 90.66984009 205.375 101.3125 C206.23306152 102.46355017 207.09113451 103.61459177 207.94921875 104.765625 C213.98736829 112.95680614 219.34595521 121.47054105 224.375 130.3125 C224.73948242 130.94430176 225.10396484 131.57610352 225.47949219 132.22705078 C247.08534998 169.97532572 256.85198095 212.74189997 256.6875 255.9375 C256.68534485 256.95540619 256.6831897 257.97331238 256.68096924 259.02206421 C256.63129854 273.63113523 256.38040191 287.96325853 253.375 302.3125 C253.07698486 303.77478027 253.07698486 303.77478027 252.77294922 305.26660156 C242.65232806 353.6484774 220.7358123 397.63678269 186.375 433.3125 C185.74287598 433.97185547 185.11075195 434.63121094 184.45947266 435.31054688 C175.31502521 444.79880305 166.01765991 453.5387044 155.375 461.3125 C154.22394983 462.17056152 153.07290823 463.02863451 151.921875 463.88671875 C143.73224019 469.92427396 135.22961724 475.30707302 126.375 480.3125 C125.66778809 480.7146875 124.96057617 481.116875 124.23193359 481.53125 C101.09654164 494.5566741 75.92537591 503.30551461 49.9375 508.625 C49.21860596 508.77235596 48.49971191 508.91971191 47.7590332 509.0715332 C33.08339502 511.86090125 18.55831162 512.66142619 3.64770508 512.62817383 C0.70811513 512.6250221 -2.2304558 512.64854926 -5.16992188 512.67382812 C-18.54306192 512.71848737 -31.43916711 511.51301542 -44.625 509.3125 C-46.33055054 509.03031616 -46.33055054 509.03031616 -48.07055664 508.74243164 C-91.33802759 500.97044532 -132.38793216 480.98345309 -165.625 452.3125 C-166.37007813 451.67828125 -167.11515625 451.0440625 -167.8828125 450.390625 C-181.38779833 438.57948485 -194.05918743 425.82889772 -204.625 411.3125 C-205.48149066 410.16255169 -206.33826433 409.01281411 -207.1953125 407.86328125 C-213.23534209 399.67315742 -218.61867614 391.16870382 -223.625 382.3125 C-224.0271875 381.60528809 -224.429375 380.89807617 -224.84375 380.16943359 C-237.8691741 357.03404164 -246.61801461 331.86287591 -251.9375 305.875 C-252.08485596 305.15610596 -252.23221191 304.43721191 -252.3840332 303.6965332 C-255.35789088 288.05024391 -255.99800362 272.57681954 -255.9375 256.6875 C-255.93534485 255.66959381 -255.9331897 254.65168762 -255.93096924 253.60293579 C-255.88129854 238.99386477 -255.63040191 224.66174147 -252.625 210.3125 C-252.42632324 209.33764648 -252.22764648 208.36279297 -252.02294922 207.35839844 C-241.90232806 158.9765226 -219.9858123 114.98821731 -185.625 79.3125 C-184.99287598 78.65314453 -184.36075195 77.99378906 -183.70947266 77.31445312 C-174.56502521 67.82619695 -165.26765991 59.0862956 -154.625 51.3125 C-153.47394983 50.45443848 -152.32290823 49.59636549 -151.171875 48.73828125 C-142.98224019 42.70072604 -134.47961724 37.31792698 -125.625 32.3125 C-124.91778809 31.9103125 -124.21057617 31.508125 -123.48193359 31.09375 C-100.34654164 18.0683259 -75.17537591 9.31948539 -49.1875 4 C-48.46860596 3.85264404 -47.74971191 3.70528809 -47.0090332 3.5534668 C-31.36274391 0.57960912 -15.88931954 -0.06050362 0 0 Z " fill="#FF4500" transform="translate(255.625,-0.3125)"/>
<path d="M0 0 C1.77406945 0.36142183 3.54815858 0.72274711 5.32226562 1.08398438 C8.0875115 1.65072801 10.85241988 2.21904945 13.61694336 2.78930664 C16.30629447 3.34287763 18.99680581 3.8905005 21.6875 4.4375 C22.51154831 4.60935318 23.33559662 4.78120636 24.18461609 4.95826721 C29.86607693 6.13359512 29.86607693 6.13359512 35.64453125 6.15234375 C37.77776509 4.72508336 37.77776509 4.72508336 39.64453125 2.77734375 C44.61849777 -1.80759745 48.45162394 -3.38899716 55.234375 -3.23046875 C60.82443114 -2.34258301 65.24310789 0.67905252 69.08203125 4.71484375 C73.0329576 10.87828886 73.40197501 15.85844088 72.64453125 23.15234375 C70.62184998 29.93105935 66.74509813 33.17925573 60.89453125 36.90234375 C55.22455907 39.08310228 50.04423645 39.06829807 44.45703125 36.58984375 C39.34430412 33.71202129 35.87452913 29.61233951 33.26953125 24.40234375 C32.64453125 22.15234375 32.64453125 22.15234375 32.64453125 19.15234375 C31.46890625 19.04921875 30.29328125 18.94609375 29.08203125 18.83984375 C22.95093071 18.15437909 16.95530782 16.87166202 10.91894531 15.62011719 C6.51897907 14.71518639 2.11238433 13.8430977 -2.29296875 12.96484375 C-4.03127407 12.61730787 -5.76955734 12.26966169 -7.5078125 11.921875 C-8.77753906 11.66792969 -10.04726563 11.41398438 -11.35546875 11.15234375 C-11.45214844 12.45171875 -11.54882812 13.75109375 -11.6484375 15.08984375 C-12.42975085 22.87287411 -14.10141229 30.49828453 -15.66796875 38.15234375 C-15.98533338 39.72041327 -16.30247119 41.28852871 -16.61938477 42.85668945 C-18.74082057 53.31623699 -20.94021117 63.75623505 -23.35546875 74.15234375 C-22.61167969 74.09433594 -21.86789062 74.03632813 -21.1015625 73.9765625 C4.03363442 72.937918 28.28258923 83.11792839 49.74780273 95.23193359 C51.72663329 96.19218474 53.47482113 96.79259907 55.64453125 97.15234375 C57.74455506 96.23010109 57.74455506 96.23010109 59.70703125 94.77734375 C66.77856468 89.91820945 75.31896843 90.23467634 83.64453125 91.15234375 C87.23236932 92.23941969 89.77762408 93.76224851 92.64453125 96.15234375 C93.60939453 96.94898438 93.60939453 96.94898438 94.59375 97.76171875 C99.79341194 102.51444958 103.97614545 108.89291451 104.8828125 116.02734375 C105.2055589 125.26808272 101.92034933 133.0989044 96.40234375 140.3984375 C94.64453125 142.15234375 94.64453125 142.15234375 91.48828125 143.88671875 C88.28010271 145.9348537 88.28010271 145.9348537 87.98046875 149.734375 C87.97057097 151.14455663 87.98492641 152.55505203 88.01953125 153.96484375 C87.62542862 175.16437616 78.17818617 191.38444103 63.16796875 205.93359375 C34.35777838 231.26515432 -6.02513348 239.36517808 -43.35546875 237.15234375 C-75.0460421 234.76295362 -105.87849155 222.87623317 -128.35546875 200.15234375 C-129.11601562 199.41371094 -129.8765625 198.67507813 -130.66015625 197.9140625 C-140.10803444 188.15370585 -147.28083158 174.14007728 -147.46484375 160.4609375 C-147.10274522 151.6710185 -147.10274522 151.6710185 -150.05078125 143.7734375 C-152.09090969 142.33179692 -154.10852406 141.23404315 -156.35546875 140.15234375 C-162.03896404 134.46884846 -164.57241643 127.01530861 -164.85546875 119.08984375 C-164.47237768 109.43842037 -160.21210287 102.74009026 -153.35546875 96.15234375 C-146.18215162 90.58936312 -139.27731833 89.15971413 -130.35546875 90.15234375 C-125.68877656 91.44898693 -121.17845584 93.09693017 -116.98046875 95.52734375 C-113.61105468 96.32958519 -112.07068273 95.29364187 -109.19458008 93.53417969 C-108.54642334 93.11942383 -107.8982666 92.70466797 -107.23046875 92.27734375 C-85.21096698 79.14066567 -61.95261041 72.90621739 -36.35546875 73.15234375 C-36.25532471 72.344021 -36.15518066 71.53569824 -36.05200195 70.70288086 C-34.75316311 60.89412191 -32.75090798 51.3516795 -30.54296875 41.71484375 C-29.82111817 38.54077135 -29.1017501 35.36613956 -28.3828125 32.19140625 C-28.20650299 31.41544601 -28.03019348 30.63948578 -27.84854126 29.8400116 C-26.79291953 25.17116286 -25.79806559 20.49488927 -24.859375 15.80078125 C-24.5351355 14.20254517 -24.5351355 14.20254517 -24.2043457 12.57202148 C-23.81619897 10.63919949 -23.44025365 8.70387108 -23.07885742 6.76586914 C-22.37913832 3.32966058 -21.85657199 0.80974347 -19.71484375 -2 C-13.93623238 -4.07609051 -5.90465662 -1.22593095 0 0 Z " fill="#FFFDFD" transform="translate(286.35546875,138.84765625)"/>
<path d="M0 0 C4.59040246 3.24687004 8.03930721 6.77324208 10.5625 11.8125 C11.49871631 18.87207707 11.5396907 26.04638997 7.765625 32.265625 C4.77859676 36.10608988 1.24135979 38.56480405 -3.4375 39.8125 C-10.2787981 40.59368629 -15.80606527 39.94544137 -21.4375 35.8125 C-26.71760235 30.86093735 -29.45676518 26.29256379 -29.8125 19 C-29.67269109 13.1280258 -28.05742538 8.5655232 -23.9765625 4.27734375 C-16.88934363 -1.89249399 -8.9312047 -3.08532526 0 0 Z " fill="#FF4702" transform="translate(311.4375,260.1875)"/>
<path d="M0 0 C5.61542455 3.19308455 9.93066392 7.67486115 12.1875 13.8125 C13.57175435 20.84025284 11.81288577 25.80661383 7.90625 31.67578125 C4.682246 35.6838044 1.26152624 37.7958293 -3.8125 38.8125 C-9.78612357 39.32508816 -14.77470977 39.39492861 -19.8125 35.8125 C-25.40909238 30.23913 -27.94846002 26.55579798 -28.125 18.5 C-28.06429179 13.02411973 -27.71027714 9.91016314 -23.8125 5.8125 C-16.54573912 -1.1569843 -9.88807472 -3.07989213 0 0 Z " fill="#FF4703" transform="translate(216.8125,259.1875)"/>
<path d="M0 0 C4.39589569 0.6279851 7.01657037 2.48243875 10.72265625 4.83984375 C21.73746863 11.42394398 32.93952525 13.89623803 45.625 13.875 C46.63256348 13.87338867 47.64012695 13.87177734 48.67822266 13.87011719 C62.00301027 13.65296935 74.54919395 10.18251626 85.6875 2.75 C89.07662203 0.56259853 91.39613196 -0.26351033 95.5 0.5 C97.4375 1.6875 97.4375 1.6875 98.5 3.5 C98.28711216 6.68293281 97.91510309 8.09685461 95.6015625 10.34375 C81.07009043 20.06195845 66.07236217 25.23999589 48.54101562 25.02148438 C46.500095 25.000001 44.46269145 25.02143817 42.421875 25.046875 C30.04928689 25.07515201 18.86588162 22.28627858 7.9375 16.5 C7.27943359 16.17 6.62136719 15.84 5.94335938 15.5 C2.11915147 13.5361139 -1.34943846 11.47155237 -4.5 8.5 C-4.9375 5.375 -4.9375 5.375 -4.5 2.5 C-2.5 0.5 -2.5 0.5 0 0 Z " fill="#FF4906" transform="translate(209.5,324.5)"/>
</svg>
