<?xml version="1.0" encoding="UTF-8"?>
<svg version="1.1" xmlns="http://www.w3.org/2000/svg" width="512" height="512">
<path d="M0 0 C1.39919258 1.18023496 2.77353956 2.39039516 4.125 3.625 C4.95515625 4.37523438 5.7853125 5.12546875 6.640625 5.8984375 C12.60805754 11.56213844 17.09235163 17.46963418 21.125 24.625 C21.81722656 25.80835937 21.81722656 25.80835937 22.5234375 27.015625 C27.69944152 36.48928084 30.64524532 47.84094907 31.125 58.625 C31.16496094 59.30175781 31.20492187 59.97851562 31.24609375 60.67578125 C31.91560366 82.21824715 23.68360038 101.30522568 10.125 117.625 C13.82537318 122.12545387 17.71556362 126.42372349 21.75 130.625 C22.45056519 131.3826062 22.45056519 131.3826062 23.1652832 132.15551758 C25.70184144 134.86450925 25.70184144 134.86450925 29.1640625 135.6875 C31.73144208 134.29640987 33.69688659 132.57312628 35.875 130.625 C57.45636635 112.52542742 86.37261168 103.18412294 114.125 101.625 C114.125 95.355 114.125 89.085 114.125 82.625 C111.155 81.965 108.185 81.305 105.125 80.625 C92.08480222 75.48532151 84.20663393 66.04531483 78.40234375 53.7265625 C74.03760309 43.12838488 74.60422247 28.7922552 78.8046875 18.26171875 C85.40140273 5.0878052 95.46805612 -3.7503628 109.38671875 -8.484375 C121.68606485 -11.41462674 134.7758718 -10.08664252 145.796875 -3.8671875 C157.41611153 3.70292115 164.92999979 14.12717975 168.125 27.625 C168.41452272 30.56848103 168.45942152 33.48122611 168.4375 36.4375 C168.43186035 37.23285156 168.4262207 38.02820312 168.42041016 38.84765625 C168.1630161 51.324897 163.53205214 61.09287033 155.125 70.3125 C148.16807914 76.96232418 139.57697719 81.04967047 130.125 82.625 C130.125 88.895 130.125 95.165 130.125 101.625 C132.620625 101.83125 135.11625 102.0375 137.6875 102.25 C167.41240586 105.29108866 191.91900534 117.42939055 215.125 135.625 C218.27704981 134.23152624 220.38671773 132.60014921 222.796875 130.1484375 C223.46074219 129.478125 224.12460937 128.8078125 224.80859375 128.1171875 C225.49050781 127.41851562 226.17242187 126.71984375 226.875 126 C227.57238281 125.29359375 228.26976562 124.5871875 228.98828125 123.859375 C230.70512488 122.11901297 232.41711832 120.37415019 234.125 118.625 C232.08541373 115.08256069 229.82667489 111.90584221 227.3125 108.6875 C218.62873788 96.81117828 213.98661476 82.27245085 213.125 67.625 C213.08375 66.944375 213.0425 66.26375 213 65.5625 C212.35071943 43.48696068 220.90999778 24.14076785 235.47265625 8.02734375 C249.8228529 -7.05059663 268.52197048 -15.22234639 289.19262695 -15.77783203 C309.95565895 -15.99547066 329.48011801 -10.66712904 345.125 3.625 C345.95515625 4.37523438 346.7853125 5.12546875 347.640625 5.8984375 C363.43185876 20.88592583 371.42759226 40.77048029 372.12109375 62.32421875 C372.38374057 83.65591592 364.29110306 103.98166498 349.5546875 119.35546875 C332.92262886 134.89120198 312.45187707 143.07632164 289.75 142.83984375 C276.1342763 142.03287737 261.8027373 138.74630043 250.80859375 130.34765625 C249.10363286 129.38302475 249.10363286 129.38302475 247.26293945 130.34887695 C244.88251814 131.76973595 243.17817755 133.34515829 241.234375 135.3203125 C240.52539062 136.03574219 239.81640625 136.75117188 239.0859375 137.48828125 C238.35632813 138.23464844 237.62671875 138.98101562 236.875 139.75 C236.12992187 140.50410156 235.38484375 141.25820312 234.6171875 142.03515625 C232.7818658 143.89400772 230.9513809 145.75737005 229.125 147.625 C230.7567743 152.00042879 233.01738243 155.2727019 235.9375 158.875 C245.68676756 171.28347764 245.68676756 171.28347764 246.625 178.4375 C246.08654156 181.87017255 245.74715383 183.35246668 243.125 185.625 C239.76604207 186.72031237 237.97586918 187.00208975 234.71875 185.55859375 C231.44384847 183.11721385 229.60251569 180.17510762 227.5 176.75 C209.26652755 148.36543867 182.01084327 128.55981033 148.91552734 121.12890625 C116.48969545 114.40334266 83.29729134 120.09557428 55.125 137.625 C27.73221106 155.8003102 7.68704913 183.38866153 0.671875 215.71289062 C-6.01552084 248.77514504 -0.35218069 282.96514902 18.25878906 311.35449219 C23.25209633 318.62971051 29.10500314 325.19228468 35.125 331.625 C35.3209375 330.81417969 35.516875 330.00335938 35.71875 329.16796875 C39.24214229 316.12230506 45.4020157 307.40458033 57.12890625 300.62890625 C63.39206655 297.31033076 70.14465916 295.28483514 76.92041016 293.29003906 C80.6836158 292.1548262 84.4027688 290.88705109 88.125 289.625 C87.35620639 285.98144395 86.41889034 284.67353292 83.5 282.3125 C82.41525391 281.39791016 82.41525391 281.39791016 81.30859375 280.46484375 C80.58800781 279.85769531 79.86742187 279.25054687 79.125 278.625 C66.52475593 267.52287412 58.67669591 251.2614227 57.125 234.625 C56.07258022 213.61566793 56.87009922 190.56617475 69.125 172.625 C72.63753146 170.28331236 73.98969356 170.12876323 78.125 170.625 C81 172.125 81 172.125 83.125 174.625 C84.20461433 180.88676312 82.42090403 184.44149038 79.4375 189.8828125 C77.19563393 194.56671126 76.19424955 199.56562408 75.125 204.625 C75.77726563 204.01011719 76.42953125 203.39523438 77.1015625 202.76171875 C77.97554687 201.95347656 78.84953125 201.14523438 79.75 200.3125 C80.60851562 199.51199219 81.46703125 198.71148437 82.3515625 197.88671875 C87.75032399 193.48406677 92.02999873 192.09517439 98.85546875 192.25390625 C103.45919656 192.77643211 107.84670951 193.90644515 112.29052734 195.20141602 C120.12010309 197.41549313 126.1823432 196.88369062 133.9375 194.625 C141.7809691 192.52878244 148.99058762 190.91420867 156.75 194.125 C161.23652351 197.1378479 165.18520768 200.944287 169.125 204.625 C166.15851838 189.94872251 160.56697723 177.45796369 147.9375 168.875 C136.56688714 162.11451317 124.61783076 159.2337549 111.52734375 162.53125 C109.32509916 163.23920463 107.12913558 163.96713747 104.94140625 164.71875 C101.30075137 165.89022286 98.89384224 166.26650506 95.125 165.625 C92.6875 164.125 92.6875 164.125 91.125 161.625 C90.51476548 158.81561842 90.48713669 156.43159855 91.125 153.625 C95.90305933 147.693616 105.84137803 145.55558561 113.125 144.625 C131.17667114 143.3091868 147.49361655 146.63711279 162.1328125 157.94921875 C177.12510514 170.96024111 184.95511885 188.03439943 186.8125 207.6875 C188.22319756 231.90447476 187.0437799 254.24894869 170.13256836 273.29125977 C166.59898138 277.16393736 163.00046415 280.85950295 158.9375 284.1875 C158.009375 284.991875 157.08125 285.79625 156.125 286.625 C156.125 287.615 156.125 288.605 156.125 289.625 C156.79966309 289.84115967 157.47432617 290.05731934 158.16943359 290.2800293 C161.2823468 291.28260571 164.39112657 292.29746922 167.5 293.3125 C169.09134766 293.82200195 169.09134766 293.82200195 170.71484375 294.34179688 C184.99413542 299.02855825 197.75461454 304.87316687 205.125 318.625 C206.72598283 322.89901021 208.00866145 327.20124849 209.125 331.625 C233.53634798 306.70314855 246.60828685 275.10787096 246.49169922 240.13500977 C246.33248597 233.31091572 245.41719915 226.67265149 244.10498047 219.97851562 C243.11914148 214.79229428 242.3356211 209.45033511 245.3125 204.75 C247.96699392 203.10238308 250.00827487 202.74966901 253.125 202.625 C255.6796875 203.65625 255.6796875 203.65625 258.125 205.625 C259.14633378 208.19035014 259.81368463 210.33718989 260.375 213 C260.53774414 213.70447266 260.70048828 214.40894531 260.86816406 215.13476562 C262.28557399 221.60188034 262.82438201 228.01140432 263.125 234.625 C269.395 234.625 275.665 234.625 282.125 234.625 C282.785 231.655 283.445 228.685 284.125 225.625 C289.24737947 212.62869263 298.66798432 204.73612168 310.92578125 198.90234375 C321.5909861 194.64407515 335.86671639 195.12276366 346.453125 199.3046875 C359.65835901 205.83008092 368.50712956 215.98795134 373.234375 229.88671875 C376.16462674 242.18606485 374.83664252 255.2758718 368.6171875 266.296875 C361.05051277 277.91084087 350.62114179 285.43957523 337.125 288.625 C322.24415083 290.14701957 310.10577357 287.93257866 298.125 278.625 C289.48117196 270.98626824 284.01878897 261.98773384 282.125 250.625 C275.855 250.625 269.585 250.625 263.125 250.625 C262.91875 253.326875 262.7125 256.02875 262.5 258.8125 C261.07376057 273.8932935 256.73836409 288.99156762 250.125 302.625 C249.81723633 303.26356934 249.50947266 303.90213867 249.19238281 304.56005859 C244.69491327 313.7792305 239.73685156 321.98282565 233.19140625 329.890625 C231.24416608 332.46731332 230.24446308 334.63097764 229.125 337.625 C231.85461298 340.49928425 234.61172374 343.34559393 237.375 346.1875 C238.15230469 347.00669922 238.92960937 347.82589844 239.73046875 348.66992188 C240.48457031 349.44013672 241.23867188 350.21035156 242.015625 351.00390625 C242.70688477 351.7213501 243.39814453 352.43879395 244.11035156 353.17797852 C246.00060467 354.86919434 246.00060467 354.86919434 248.23828125 354.43066406 C250.60261481 353.42104958 252.69830985 352.18159651 254.875 350.8125 C274.68394216 338.74862389 295.60271246 336.06332212 318.15039062 341.12451172 C323.09186629 342.37698762 327.59002357 344.32928579 332.125 346.625 C333.10855469 347.11742187 334.09210938 347.60984375 335.10546875 348.1171875 C352.52784562 357.53834343 366.06859963 373.4557989 372.34375 392.28125 C379.28489429 415.88114059 376.76039075 437.9329874 365 459.625 C353.95436934 477.82059803 336.86344583 489.62720201 316.49609375 495.2578125 C310.06350423 496.81097194 303.91042706 497.1254592 297.3125 497.0625 C296.17248535 497.05347656 295.0324707 497.04445313 293.85791016 497.03515625 C274.74545748 496.64360792 257.25942538 489.5771779 243.125 476.625 C242.49335938 476.06167969 241.86171875 475.49835938 241.2109375 474.91796875 C226.08334558 460.69003538 218.32340645 440.85274202 217.65405273 420.40283203 C217.48008108 403.39454476 221.05552599 385.24179982 232.4375 371.91796875 C234.35566298 369.84153995 234.35566298 369.84153995 233.95532227 367.72485352 C232.91657214 365.09789385 231.54669411 363.70602417 229.52734375 361.734375 C228.80869141 361.02539062 228.09003906 360.31640625 227.34960938 359.5859375 C226.21749023 358.49152344 226.21749023 358.49152344 225.0625 357.375 C224.30388672 356.62992187 223.54527344 355.88484375 222.76367188 355.1171875 C220.89067793 353.27953306 219.01104389 351.44924276 217.125 349.625 C212.82033037 351.23603311 209.87905271 353.26191953 206.3125 356.1875 C185.34204515 372.76408778 156.99932059 383.625 130.125 383.625 C130.455 389.895 130.785 396.165 131.125 402.625 C132.919375 403.16125 134.71375 403.6975 136.5625 404.25 C149.45829158 408.58395581 158.47787433 416.81021943 164.8984375 428.71875 C169.87022853 440.49904466 170.06606797 455.12843611 165.38671875 467.015625 C159.32129839 479.55959032 149.78687999 488.65207863 136.625 493.5 C123.95879147 496.83636723 110.15951259 495.49527952 98.67578125 489.3046875 C87.03793694 482.07302194 79.6647303 471.91111099 76.125 458.625 C75.82520094 455.53692553 75.791082 452.47601987 75.8125 449.375 C75.81813965 448.5281665 75.8237793 447.68133301 75.82958984 446.80883789 C76.07698618 434.07037581 80.57960648 424.25221908 89.25 414.875 C96.14461536 408.294835 104.07261708 405.21139512 113.125 402.625 C113.455 396.355 113.785 390.085 114.125 383.625 C112.35125 383.5425 110.5775 383.46 108.75 383.375 C81.62252258 381.25198003 55.10563933 370.47773648 34.1953125 353.10546875 C31.78878913 351.2604751 31.78878913 351.2604751 27.125 349.625 C18.71 358.04 18.71 358.04 10.125 366.625 C11.59488511 370.29971277 12.85913871 372.9465725 14.9375 376.1875 C25.95314756 394.34988475 29.6412473 416.22287585 24.625 437 C21.31411385 448.43547203 15.90681236 459.56342009 8.125 468.625 C7.62871094 469.26308594 7.13242188 469.90117187 6.62109375 470.55859375 C-5.44231683 485.47071334 -24.12652164 494.08358914 -42.875 496.625 C-64.06353519 497.88584563 -84.61515948 494.35452296 -101.47265625 480.48828125 C-103.99197002 478.25015786 -106.43932549 475.95352132 -108.875 473.625 C-109.50277344 473.07199219 -110.13054687 472.51898438 -110.77734375 471.94921875 C-124.2960747 459.59536711 -131.22853023 440.13398593 -132.16015625 422.1953125 C-132.86474004 398.90906796 -125.54867936 379.01282058 -109.69604492 361.99926758 C-95.35640601 347.15371488 -76.07419407 338.82553583 -55.47363281 338.27099609 C-36.60631457 338.1185544 -19.02635215 343.13522462 -3.875 354.625 C-0.72295019 353.23152624 1.38671773 351.60014921 3.796875 349.1484375 C4.46074219 348.478125 5.12460938 347.8078125 5.80859375 347.1171875 C6.49050781 346.41851562 7.17242187 345.71984375 7.875 345 C8.92107422 343.94039063 8.92107422 343.94039063 9.98828125 342.859375 C11.70512488 341.11901297 13.41711832 339.37415019 15.125 337.625 C13.70345622 333.39093949 11.62267616 330.64329061 8.75 327.25 C-8.43862154 305.84650733 -17.60931692 277.83718629 -18.875 250.625 C-25.145 250.625 -31.415 250.625 -37.875 250.625 C-38.535 253.595 -39.195 256.565 -39.875 259.625 C-45.01467849 272.66519778 -54.45468517 280.54336607 -66.7734375 286.34765625 C-76.98447269 290.55295664 -90.77630463 290.27966776 -101.0625 286.5625 C-113.53478979 280.87730773 -122.75935844 271.32788522 -127.875 258.625 C-131.5519251 247.83935303 -131.38765663 234.90966224 -127.1953125 224.296875 C-120.66598289 211.08367542 -110.51364991 202.26487422 -96.62109375 197.51171875 C-92.33776221 196.49783318 -88.44506381 196.28000218 -84.0625 196.3125 C-83.26714844 196.31813965 -82.47179687 196.3237793 -81.65234375 196.32958984 C-69.175103 196.5869839 -59.40712967 201.21794786 -50.1875 209.625 C-43.53767582 216.58192086 -39.45032953 225.17302281 -37.875 234.625 C-31.605 234.625 -25.335 234.625 -18.875 234.625 C-18.66875 231.923125 -18.4625 229.22125 -18.25 226.4375 C-16.82376057 211.3567065 -12.48836409 196.25843238 -5.875 182.625 C-5.56723633 181.98643066 -5.25947266 181.34786133 -4.94238281 180.68994141 C0.4004514 169.73789235 6.43681948 159.31318052 15.125 150.625 C14.85079367 146.87146363 12.91711022 145.06617443 10.30859375 142.515625 C9.54482422 141.76152344 8.78105469 141.00742188 7.99414062 140.23046875 C7.19169922 139.45316406 6.38925781 138.67585937 5.5625 137.875 C4.75619141 137.08222656 3.94988281 136.28945312 3.11914062 135.47265625 C1.12766222 133.51652954 -0.87047721 131.56774281 -2.875 129.625 C-6.50324304 131.04535724 -9.87692882 132.66070669 -13.3125 134.5 C-31.99383401 143.92128929 -52.93751172 145.08058043 -72.85449219 139.02294922 C-93.61833051 132.08260766 -109.47731982 118.0790447 -119.6875 98.8125 C-128.68883638 79.76558868 -130.38747437 58.61367267 -124.125 38.4375 C-116.11487714 16.49800907 -101.39809655 0.6354373 -80.5 -9.625 C-54.18114674 -21.09732065 -22.99435163 -17.12431468 0 0 Z M-93.125 18.375 C-104.7721079 30.61276947 -111.75994748 46.26452576 -111.90625 63.25390625 C-111.37886055 76.10902412 -108.0671571 87.85731337 -100.875 98.625 C-100.215 98.955 -99.555 99.285 -98.875 99.625 C-98.54628906 98.87476562 -98.21757813 98.12453125 -97.87890625 97.3515625 C-93.61311495 88.17259694 -88.21329885 80.52972294 -79.875 74.625 C-80.143125 73.965 -80.41125 73.305 -80.6875 72.625 C-81.079375 71.635 -81.47125 70.645 -81.875 69.625 C-82.38546875 68.42617187 -82.8959375 67.22734375 -83.421875 65.9921875 C-85.08324106 61.53131009 -85.37633921 57.47916816 -85.3125 52.75 C-85.30492676 51.96061035 -85.29735352 51.1712207 -85.28955078 50.35791016 C-84.98881855 39.68740387 -80.83744701 31.28604859 -73.09765625 23.9375 C-64.56164365 16.95507661 -55.41804896 14.91049089 -44.52734375 15.2421875 C-34.82990497 16.25860354 -26.81408324 20.30775029 -20.19140625 27.4375 C-13.64661415 35.53280394 -10.21153298 45.10230472 -11.12890625 55.50390625 C-12.09555383 62.32269056 -14.02377526 68.36891465 -16.875 74.625 C-16.36710937 75.0375 -15.85921875 75.45 -15.3359375 75.875 C-7.19233647 82.70708476 -2.32579968 90.0144237 2.125 99.625 C11.00441817 91.70655782 13.79840518 78.99221704 14.9375 67.625 C15.79348248 51.01564773 11.04923692 35.41245295 0.19360352 22.64770508 C-12.05650821 9.14161584 -27.55235676 1.02409784 -45.76171875 -0.3359375 C-63.81084296 -0.56240079 -80.09890857 5.97761886 -93.125 18.375 Z M247.875 18.375 C236.2278921 30.61276947 229.24005252 46.26452576 229.09375 63.25390625 C229.62113945 76.10902412 232.9328429 87.85731337 240.125 98.625 C240.785 98.955 241.445 99.285 242.125 99.625 C242.45371094 98.87476562 242.78242188 98.12453125 243.12109375 97.3515625 C247.59005497 87.73542372 253.68743904 81.02890684 261.125 73.625 C260.77566406 72.87476562 260.42632812 72.12453125 260.06640625 71.3515625 C255.20187306 60.40980797 253.86113282 51.30541355 257.125 39.625 C260.98680072 29.85307859 267.34212826 22.6064212 276.9375 18.1875 C286.04341198 14.48874158 296.72377877 14.0978546 306.0625 17.25 C316.05678404 21.49089798 322.73262301 28.29855451 327.5 38 C330.80012899 46.95749296 330.73456296 58.71433195 327.1875 67.5625 C326.51698612 68.92515724 325.8324422 70.28114393 325.125 71.625 C324.63 73.11 324.63 73.11 324.125 74.625 C324.63289063 75.0375 325.14078125 75.45 325.6640625 75.875 C333.80766353 82.70708476 338.67420032 90.0144237 343.125 99.625 C352.00441817 91.70655782 354.79840518 78.99221704 355.9375 67.625 C356.79348248 51.01564773 352.04923692 35.41245295 341.19360352 22.64770508 C328.94349179 9.14161584 313.44764324 1.02409784 295.23828125 -0.3359375 C277.18915704 -0.56240079 260.90109143 5.97761886 247.875 18.375 Z M95.75 20.6875 C91.3925196 28.56448379 90.6072693 37.50863614 92.77734375 46.25390625 C95.9401005 54.05899265 101.77507289 60.55908287 109.125 64.625 C116.88822632 67.65991567 126.16410503 68.23774092 134 65.0625 C141.66542196 61.02280835 148.01847398 55.0134325 151.203125 46.8671875 C153.4450453 38.98246778 153.35518798 29.95850804 149.43359375 22.64453125 C144.24893765 14.64313662 138.347541 9.59791322 129.125 6.625 C114.82400616 4.5909418 104.47908591 9.43157344 95.75 20.6875 Z M-66.6484375 39.74609375 C-70.54490359 45.71488416 -70.48623026 51.70399273 -69.875 58.625 C-68.79206133 62.04511272 -68.79206133 62.04511272 -66.875 64.625 C-66.00875 65.924375 -66.00875 65.924375 -65.125 67.25 C-60.50662044 72.1249562 -55.25075057 74.36532688 -48.625 74.875 C-42.02662176 74.43510812 -36.66225847 72.27927906 -31.875 67.625 C-26.77228797 60.67964197 -26.12237142 55.08669558 -26.875 46.625 C-28.57752362 40.44053169 -32.56518509 36.0912825 -37.875 32.625 C-48.84599875 27.39047119 -59.20843203 30.78899219 -66.6484375 39.74609375 Z M274.3515625 39.84375 C270.238442 45.8169441 270.46158164 51.52302136 271.125 58.625 C272.64790096 64.59130187 276.10888518 68.03340064 281.11328125 71.4375 C286.07287114 74.36510257 290.40845581 75.11780553 296.125 74.625 C304.06067646 72.55021436 308.89701853 68.7219689 313.125 61.625 C315.1559276 55.53221719 315.23855753 48.16248609 312.5625 42.25 C309.2178245 36.55693532 304.37240281 32.68252787 298.125 30.625 C287.82232467 29.30059032 280.86659335 31.83644952 274.3515625 39.84375 Z M-74.8125 90.5 C-80.39762324 96.2543694 -85.73300989 104.10316255 -85.9453125 112.359375 C-85.92210937 113.10703125 -85.89890625 113.8546875 -85.875 114.625 C-66.87782956 125.45988808 -50.38379013 129.47059453 -28.875 123.625 C-22.29826035 121.50230058 -16.57663254 118.51102888 -10.875 114.625 C-11.28222305 104.03720063 -16.42258722 95.38474514 -23.84765625 88.05078125 C-26.25171515 86.36006546 -27.9549042 85.86988145 -30.875 85.625 C-33.2320226 86.56780904 -35.56534152 87.57147157 -37.875 88.625 C-46.19785454 90.61524782 -56.20440196 90.5510713 -63.94921875 86.5546875 C-68.91145149 84.15912687 -71.28373439 87.28259606 -74.8125 90.5 Z M266.1875 90.5 C260.42935111 96.43263825 255.85918348 103.85767916 254.80078125 112.171875 C254.88100942 114.72036328 254.88100942 114.72036328 256.78515625 116.25 C273.14091012 125.61134205 290.22885507 128.89640769 308.69140625 124.609375 C316.37565779 122.40638138 323.29807054 118.72115768 330.125 114.625 C329.7724284 105.45813827 325.87821602 97.05011247 319.4375 90.5 C317.39806885 88.61528431 315.45559795 87.17873197 313.125 85.625 C310.40715123 85.91108934 308.21399623 86.58848872 305.6875 87.625 C297.23020883 90.92540631 287.67544228 90.27351176 279.125 87.625 C278.44050781 87.27179688 277.75601562 86.91859375 277.05078125 86.5546875 C272.08854851 84.15912687 269.71626561 87.28259606 266.1875 90.5 Z M90.3125 212.875 C85.06244275 217.85120926 80.25694848 220.99124969 73.125 222.625 C72.58004402 238.54982488 76.53348898 252.07185524 87.375 264 C96.40536697 273.50548546 107.97204275 282.40412835 121.5625 283 C134.92239049 282.80353102 145.99872593 274.59488339 155.375 265.8125 C167.35466622 253.26821837 171.40064085 239.56159919 171.125 222.625 C170.19880859 222.31369141 170.19880859 222.31369141 169.25390625 221.99609375 C162.00821828 219.36029554 155.77180164 215.70682621 150.5859375 209.90234375 C149.01662879 208.23589234 149.01662879 208.23589234 145.6875 208.75 C142.21215811 209.31339787 138.8884212 210.24199929 135.5 211.1875 C124.21417888 214.04789632 114.32767386 212.85805237 103.40234375 209.5 C97.10496648 207.81869785 94.96948291 208.2104937 90.3125 212.875 Z M-108.47265625 224.4375 C-113.40792482 232.13596908 -115.04284135 239.52306124 -113.875 248.625 C-111.74435071 257.34931545 -106.82332778 263.56303152 -99.8125 269 C-91.93551621 273.3574804 -82.99136386 274.1427307 -74.24609375 271.97265625 C-65.87995001 268.58254931 -58.42586418 261.99591274 -54.875 253.625 C-52.42995654 245.16678746 -52.05168338 237.23472715 -56.0703125 229.25 C-60.38459004 222.27171502 -66.44513477 215.56332099 -74.4921875 213.0703125 C-87.71967237 210.59829074 -99.98126561 213.47550915 -108.47265625 224.4375 Z M302.5859375 225.43359375 C297.7320234 232.2602975 296.37552856 240.67517852 297.6875 248.875 C300.15885869 258.54419088 306.61633334 265.55367922 314.9921875 270.79296875 C321.81593735 273.91197888 330.59087312 273.76022104 337.74609375 271.96875 C346.88813082 268.29292227 353.25981017 261.59953948 357.125 252.625 C359.57857823 244.90251979 358.86929596 236.30144455 355.50390625 229.0078125 C351.28212685 221.71238634 346.06615094 216.58896038 338.1875 213.4375 C323.63670876 209.577086 312.05094224 214.31101204 302.5859375 225.43359375 Z M103.125 295.625 C101.16437887 298.20181635 99.5714553 300.7320894 98.125 303.625 C101.67317317 305.83641333 105.24055283 308.01473364 108.8125 310.1875 C109.81990234 310.81591797 110.82730469 311.44433594 111.86523438 312.09179688 C112.84169922 312.68154297 113.81816406 313.27128906 114.82421875 313.87890625 C116.16746216 314.70370483 116.16746216 314.70370483 117.5378418 315.54516602 C120.63983491 316.83988297 121.96833312 316.66366795 125.125 315.625 C127.09524754 314.77954432 127.09524754 314.77954432 128.9375 313.69921875 C129.62070312 313.31443359 130.30390625 312.92964844 131.0078125 312.53320312 C131.70648438 312.13037109 132.40515625 311.72753906 133.125 311.3125 C133.82367188 310.92126953 134.52234375 310.53003906 135.2421875 310.12695312 C139.15040408 307.90369407 142.69132985 305.55569113 146.125 302.625 C144.50664588 299.71480181 142.89075448 297.51899697 140.125 295.625 C137.04756436 295.60199973 134.41157116 296.22293547 131.41796875 296.92578125 C123.14999309 298.6813775 115.16079352 297.96268539 107.125 295.625 C105.805 295.625 104.485 295.625 103.125 295.625 Z M57.74609375 320.796875 C54.04654648 324.96889457 52.06778356 329.11586475 51.125 334.625 C50.88523438 335.93597656 50.88523438 335.93597656 50.640625 337.2734375 C50.34339153 340.32445167 50.35613606 342.64833681 51.125 345.625 C54.2403452 348.96333833 58.04469477 350.66663524 62.125 352.625 C63.42037529 353.29866175 64.71460083 353.97453783 66.0078125 354.65234375 C76.01871864 359.75815529 86.18557377 363.13149353 97.125 365.625 C98.17429688 365.87121094 99.22359375 366.11742187 100.3046875 366.37109375 C116.77063437 369.53762199 134.89346785 368.70516797 151.125 364.625 C151.77307617 364.46402832 152.42115234 364.30305664 153.08886719 364.13720703 C161.49249234 361.96428756 169.33308148 358.80195711 177.1875 355.125 C177.97302246 354.75745605 178.75854492 354.38991211 179.56787109 354.01123047 C184.47070436 351.63489471 188.97106864 349.17462418 193.125 345.625 C195.0593278 339.30491908 193.06657272 331.41222458 190.125 325.625 C185.3706004 317.77437103 177.49134784 313.78957601 169.125 310.625 C164.68804702 310.11747389 162.32669969 311.36085299 158.58984375 313.6953125 C157.53216797 314.345 156.47449219 314.9946875 155.38476562 315.6640625 C153.74024414 316.69660156 153.74024414 316.69660156 152.0625 317.75 C127.82281451 332.8285747 127.82281451 332.8285747 119.80078125 332.265625 C106.99429625 329.19954684 94.32349239 319.69191616 83.4375 312.5625 C74.94880051 307.59741162 64.11149276 314.70938322 57.74609375 320.796875 Z M-102 377.98046875 C-111.95743921 390.10536779 -116.7485017 405.16024587 -116.2578125 420.796875 C-115.14911196 431.88388039 -112.19460418 443.30569037 -105.875 452.625 C-104.885 452.955 -103.895 453.285 -102.875 453.625 C-102.54628906 452.87476563 -102.21757813 452.12453125 -101.87890625 451.3515625 C-97.40994503 441.73542372 -91.31256096 435.02890684 -83.875 427.625 C-84.39900391 426.62919922 -84.39900391 426.62919922 -84.93359375 425.61328125 C-85.38863281 424.73027344 -85.84367187 423.84726562 -86.3125 422.9375 C-86.76496094 422.06738281 -87.21742187 421.19726562 -87.68359375 420.30078125 C-91.81704555 411.01745507 -90.28886114 400.97539055 -87.13671875 391.640625 C-85.33030132 387.32311955 -83.08758214 384.0078877 -79.875 380.625 C-79.35035156 380.07199219 -78.82570312 379.51898438 -78.28515625 378.94921875 C-70.85349212 371.90225253 -60.81685733 369.21253475 -50.7578125 369.34765625 C-39.63200068 370.41802568 -31.136263 374.88572428 -23.625 382.9375 C-16.24159938 391.99071602 -14.96736671 402.28547759 -15.875 413.625 C-16.7244089 416.89652248 -17.76042944 419.95959547 -19 423.1015625 C-20.09340857 425.80973547 -20.09340857 425.80973547 -19.875 429.625 C-18.25346871 431.01287313 -16.579008 432.3397326 -14.875 433.625 C-9.75301506 439.78496294 -5.52980743 446.50866823 -1.875 453.625 C6.45649689 445.98337228 9.76328447 433.39139358 10.4453125 422.390625 C11.11678275 404.34851132 5.9848814 388.89683028 -5.6953125 374.96875 C-16.55772093 363.28874094 -31.9175156 355.24387413 -47.9453125 354.34765625 C-70.16162926 353.60560821 -87.31228219 361.69978155 -102 377.98046875 Z M247.265625 378.68359375 C235.92926878 392.73716937 232.80935123 409.07474191 234.125 426.625 C235.37845094 436.87380477 240.32775725 445.6458378 245.125 454.625 C248.03248557 453.17125722 248.37141399 451.13088325 249.6875 448.1875 C253.29814504 440.74387957 258.18682665 434.2504489 265.125 429.625 C264.856875 428.820625 264.58875 428.01625 264.3125 427.1875 C263.7246875 425.4240625 263.7246875 425.4240625 263.125 423.625 C262.86074219 422.99464844 262.59648437 422.36429687 262.32421875 421.71484375 C258.72692517 412.59374391 258.84200884 402.16514775 262.0859375 392.93359375 C266.65245317 382.78768863 273.8126649 375.77119659 284.125 371.625 C294.16083324 368.78432452 306.28135851 369.45764039 315.58203125 374.1015625 C325.18533391 379.85469313 330.96514902 388.29771328 333.80078125 399.23046875 C334.98733362 407.9938013 334.43322287 416.84116068 329.9609375 424.66015625 C328.96473704 426.58657568 328.96473704 426.58657568 329.2734375 428.68359375 C330.34919375 431.13612061 331.61862104 432.0786792 333.75 433.6875 C340.07867056 438.95759797 344.27034389 445.94791512 347.125 453.625 C351.29825166 452.23391611 351.67458187 450.25872732 353.625 446.375 C361.44279855 430.34820574 362.29451793 413.42753641 356.80078125 396.51660156 C350.90288982 380.00761932 338.40468536 367.57173003 322.875 359.875 C294.88725875 347.91408943 266.89200051 356.95439229 247.265625 378.68359375 Z M-69.3125 391.9375 C-73.63461779 397.69216108 -75.8615945 403.37144606 -74.875 410.625 C-73.47923063 417.18888841 -70.1046091 421.51524482 -64.875 425.625 C-59.33997049 428.86247009 -54.14662511 429.58770847 -47.875 428.625 C-40.76489692 426.45741335 -36.74034643 423.03036264 -32.93359375 416.7109375 C-30.18372617 411.29237925 -29.84937548 405.28327855 -31.48828125 399.4375 C-34.37769416 392.92041008 -39.53221532 388.1940622 -45.9375 385.1875 C-54.61832889 383.52521362 -63.19447469 385.18027802 -69.3125 391.9375 Z M278.3125 394.84375 C274.87531881 399.99952179 274.33946225 405.59922944 275.125 411.625 C276.94861466 418.24242804 280.21155703 423.07467286 286.125 426.625 C292.0900204 429.45211891 297.31740963 430.20156418 303.734375 428.546875 C310.79928462 425.82249809 314.99189179 421.39251373 318.125 414.625 C320.2726362 408.89797014 319.3960549 403.05357817 317.09375 397.54296875 C314.43346507 392.27603367 310.82490288 388.71777294 305.49609375 386.3203125 C294.64510525 383.13830928 285.16499459 386.05468085 278.3125 394.84375 Z M98.125 429.625 C91.88390994 437.67272139 91.24412835 445.71240633 92.125 455.625 C94.14198986 463.75334836 99.69469993 469.96476729 106.1875 475 C114.06448379 479.3574804 123.00863614 480.1427307 131.75390625 477.97265625 C139.55899265 474.8098995 146.05908287 468.97492711 150.125 461.625 C153.15991567 453.86177368 153.73774092 444.58589497 150.5625 436.75 C146.52280835 429.08457804 140.5134325 422.73152602 132.3671875 419.546875 C118.7323963 415.66999461 107.61325582 419.74946843 98.125 429.625 Z M-80.39453125 446.04296875 C-83.77389528 449.56070044 -85.89271953 453.20165798 -87.875 457.625 C-88.308125 458.511875 -88.74125 459.39875 -89.1875 460.3125 C-90.14822712 463.54403667 -90.62792708 465.27105208 -89.875 468.625 C-81.57110034 477.03563359 -67.15755784 480.66615179 -55.64550781 480.86694336 C-40.2312775 480.92017375 -27.77851994 477.22734663 -14.875 468.625 C-17.11275545 457.02400463 -21.58776954 448.18071292 -30.875 440.625 C-34.56287893 439.39570702 -35.18093318 440.01266993 -38.625 441.5625 C-48.75659077 445.40875205 -58.92839399 444.74999631 -68.80078125 440.5 C-73.98213655 438.3142682 -76.72442795 442.68003138 -80.39453125 446.04296875 Z M277.125 439.625 C266.52949081 448.51288344 261.90999948 455.03963668 259.125 468.625 C274.14693032 479.92056001 289.89372299 481.83344236 308.125 480.625 C317.67065088 479.02925172 325.8564592 474.4426768 334.125 469.625 C333.86326538 458.2276471 329.13972138 450.54476023 321.125 442.625 C318.33200379 440.31075329 318.33200379 440.31075329 315.3125 440.875 C312.16316809 441.55019259 312.16316809 441.55019259 309.375 442.625 C298.49803586 445.9717582 287.26605703 444.69552852 277.125 439.625 Z " fill="#000000" transform="translate(133.875,15.375)"/>
</svg>
